<svg width="26" height="22" viewBox="0 0 26 22" fill="none" xmlns="http://www.w3.org/2000/svg">
<path fill-rule="evenodd" clip-rule="evenodd" d="M19.5313 0.841125C21.2053 0.841125 22.8157 1.44652 24.0003 2.53281C25.1862 3.61681 25.8491 5.0789 25.8491 6.60952V15.6333C25.8491 18.8202 23.0154 21.4017 19.5313 21.4017H7.19914C3.71507 21.4017 0.882629 18.8202 0.882629 15.6333V6.60952C0.882629 3.42262 3.70259 0.841125 7.19914 0.841125H19.5313ZM21.5176 8.31147L21.6175 8.22009C21.9158 7.88883 21.9158 7.40908 21.6037 7.07783C21.4302 6.90763 21.1918 6.80369 20.9434 6.78084C20.6812 6.76828 20.4316 6.84938 20.2431 7.00929L14.6144 11.1214C13.8903 11.6708 12.853 11.6708 12.1177 11.1214L6.50027 7.00929C6.11205 6.74657 5.57527 6.78084 5.25195 7.08925C4.91491 7.39766 4.87746 7.88883 5.16332 8.23151L5.32685 8.38L11.0067 12.435C11.7058 12.9376 12.5534 13.2117 13.4409 13.2117C14.326 13.2117 15.1886 12.9376 15.8864 12.435L21.5176 8.31147Z" fill="black"/>
</svg>
