<svg width="24" height="29" viewBox="0 0 24 29" fill="none" xmlns="http://www.w3.org/2000/svg">
<path d="M19.896 15.291C19.8838 13.0256 20.8947 11.3158 22.9409 10.0565C21.796 8.39604 20.0665 7.48246 17.7829 7.30345C15.621 7.13062 13.2582 8.58122 12.3934 8.58122C11.48 8.58122 9.38509 7.36518 7.74086 7.36518C4.34279 7.42074 0.731567 10.1121 0.731567 15.5873C0.731567 17.2046 1.02388 18.8754 1.60849 20.5996C2.38798 22.865 5.20144 28.4206 8.1367 28.328C9.67131 28.2909 10.7553 27.223 12.7527 27.223C14.6893 27.223 15.6941 28.328 17.4053 28.328C20.3649 28.2848 22.9104 23.2354 23.6534 20.9638C19.6829 19.0688 19.896 15.4083 19.896 15.291V15.291ZM16.4492 5.15532C18.1117 3.15534 17.9595 1.33437 17.9107 0.680054C16.4431 0.766473 14.7441 1.69239 13.7758 2.83436C12.7101 4.05657 12.0829 5.5689 12.2168 7.27259C13.8062 7.39605 15.2556 6.56889 16.4492 5.15532V5.15532Z" fill="black"/>
</svg>
