<svg width="27" height="28" viewBox="0 0 27 28" fill="none" xmlns="http://www.w3.org/2000/svg">
<g clip-path="url(#clip0_3_10)">
<path d="M26.0903 14.1488C26.0903 13.0685 26.0045 12.2801 25.8188 11.4626H13.7437V16.3386H20.8315C20.6886 17.5503 19.917 19.3752 18.2021 20.6015L18.1781 20.7647L21.996 23.7864L22.2605 23.8133C24.6898 21.5213 26.0903 18.1489 26.0903 14.1488" fill="#4285F4"/>
<path d="M13.7437 26.9959C17.2161 26.9959 20.1312 25.8279 22.2605 23.8133L18.2021 20.6015C17.1161 21.3752 15.6585 21.9154 13.7437 21.9154C10.3427 21.9154 7.45608 19.6234 6.4271 16.4554L6.27628 16.4685L2.30634 19.6073L2.25443 19.7548C4.36933 24.0468 8.71352 26.9959 13.7437 26.9959Z" fill="#34A853"/>
<path d="M6.42712 16.4554C6.15561 15.6379 5.99848 14.7619 5.99848 13.8568C5.99848 12.9516 6.15561 12.0757 6.41284 11.2582L6.40564 11.0841L2.38596 7.89485L2.25444 7.95876C1.38279 9.73986 0.882629 11.74 0.882629 13.8568C0.882629 15.9737 1.38279 17.9737 2.25444 19.7548L6.42712 16.4554" fill="#FBBC05"/>
<path d="M13.7437 5.79813C16.1587 5.79813 17.7877 6.86385 18.7166 7.75445L22.3462 4.13388C20.1171 2.01703 17.2161 0.717712 13.7437 0.717712C8.71352 0.717712 4.36933 3.66669 2.25443 7.95876L6.41282 11.2582C7.45609 8.0902 10.3427 5.79813 13.7437 5.79813" fill="#EB4335"/>
</g>
<defs>
<clipPath id="clip0_3_10">
<rect x="0.882629" y="0.680054" width="25.2077" height="26.3535" rx="12.6038" fill="white"/>
</clipPath>
</defs>
</svg>
